<svg width="1927" height="416" viewBox="0 0 1927 416" fill="none" xmlns="http://www.w3.org/2000/svg">
<path d="M1926.64 0V280.578C1174.19 361.948 752.317 408.905 0 416V0H1926.64Z" fill="url(#paint0_linear_4858_4567)"/>
<path d="M235.141 182.004C235.756 177.341 239.161 172.901 244.866 169.321C250.57 165.741 258.282 163.204 266.894 162.075L407.447 143.654C416.049 142.528 425.107 142.862 433.326 144.611C441.544 146.36 448.501 149.434 453.201 153.392L530.055 218.123C534.758 222.084 536.959 226.728 536.341 231.389C535.723 236.049 532.319 240.487 526.617 244.066L433.568 302.464C427.865 306.043 420.158 308.578 411.549 309.708C402.941 310.838 393.875 310.503 385.65 308.752L251.255 280.134C243.037 278.384 236.081 275.31 231.383 271.351C226.685 267.392 224.486 262.753 225.101 258.096L235.141 182.004Z" fill="#07516C"/>
<path d="M1241.14 265.836C1241.76 261.173 1245.16 256.733 1250.87 253.153C1256.57 249.573 1264.28 247.036 1272.89 245.907L1413.45 227.487C1422.05 226.36 1431.11 226.694 1439.33 228.444C1447.54 230.192 1454.5 233.266 1459.2 237.224L1536.06 301.955C1540.76 305.916 1542.96 310.56 1542.34 315.221C1542.03 317.582 1541 319.887 1539.32 322.051L1234.68 352.521C1231.86 349.213 1230.62 345.576 1231.1 341.928L1241.14 265.836Z" fill="url(#paint1_linear_4858_4567)"/>
<path d="M0 151.628L26.7642 137.571C53.5274 123.724 107.056 95.294 160.583 81.4474C214.11 67.3902 267.639 67.3902 321.166 58.9665C374.694 50.5427 428.222 33.6951 481.749 42.1189C535.277 50.5427 588.805 84.2378 642.332 101.085C695.86 117.933 749.388 117.933 802.915 126.357C856.443 134.78 909.971 151.628 963.499 154.418C1017.03 157.419 1070.55 145.837 1124.08 126.357C1177.61 106.877 1231.13 78.4465 1284.67 81.4474C1338.19 84.2378 1391.72 117.933 1445.25 109.509C1498.78 101.085 1552.3 50.5427 1605.83 53.3331C1659.36 56.334 1712.88 112.142 1766.42 123.566C1819.94 134.78 1873.47 101.085 1900.23 84.2378L1927 67.3902V0H0V151.628Z" fill="url(#paint2_linear_4858_4567)"/>
<defs>
<linearGradient id="paint0_linear_4858_4567" x1="941" y1="-104.5" x2="963" y2="389.5" gradientUnits="userSpaceOnUse">
<stop stop-color="#12586F"/>
<stop offset="1" stop-color="#09536D"/>
</linearGradient>
<linearGradient id="paint1_linear_4858_4567" x1="1387" y1="52.5" x2="1387" y2="392.5" gradientUnits="userSpaceOnUse">
<stop offset="0.267686" stop-color="#11586F"/>
<stop offset="0.784993" stop-color="#054C65"/>
</linearGradient>
<linearGradient id="paint2_linear_4858_4567" x1="6.83874e-07" y1="242.5" x2="1927" y2="77.4445" gradientUnits="userSpaceOnUse">
<stop stop-color="#0D556E"/>
<stop offset="0.365011" stop-color="#004D6A"/>
<stop offset="1" stop-color="#0D556E"/>
</linearGradient>
</defs>
</svg>
