<svg width="1927" height="416" viewBox="0 0 1927 416" fill="none" xmlns="http://www.w3.org/2000/svg">
<path d="M1926.64 0V280.578C1174.19 361.948 752.317 408.905 0 416V0H1926.64Z" fill="url(#paint0_linear_4858_4567)"/>
<path d="M170.141 182.043C170.756 177.381 174.161 172.941 179.866 169.36C185.57 165.78 193.282 163.243 201.894 162.114L342.447 143.694C351.049 142.567 360.107 142.902 368.326 144.651C376.544 146.4 383.501 149.473 388.201 153.431L465.055 218.162C469.758 222.124 471.959 226.768 471.341 231.428C470.723 236.089 467.319 240.527 461.617 244.106L368.568 302.504C362.865 306.082 355.158 308.618 346.549 309.748C337.941 310.878 328.875 310.543 320.65 308.791L186.255 280.174C178.037 278.424 171.081 275.349 166.383 271.391C161.685 267.432 159.486 262.793 160.101 258.136L170.141 182.043Z" fill="#2D6A6E"/>
<path d="M1241.14 265.836C1241.76 261.173 1245.16 256.733 1250.87 253.153C1256.57 249.573 1264.28 247.036 1272.89 245.907L1413.45 227.487C1422.05 226.36 1431.11 226.694 1439.33 228.444C1447.54 230.192 1454.5 233.266 1459.2 237.224L1536.06 301.955C1540.76 305.916 1542.96 310.56 1542.34 315.221C1542.03 317.582 1541 319.887 1539.32 322.051L1234.68 352.521C1231.86 349.213 1230.62 345.576 1231.1 341.928L1241.14 265.836Z" fill="#2D6A6E"/>
<path d="M0 151.628L26.7642 137.571C53.5274 123.724 107.056 95.294 160.583 81.4474C214.11 67.3902 267.639 67.3902 321.166 58.9665C374.694 50.5427 428.222 33.6951 481.749 42.1189C535.277 50.5427 588.805 84.2378 642.332 101.085C695.86 117.933 749.388 117.933 802.915 126.357C856.443 134.78 909.971 151.628 963.499 154.418C1017.03 157.419 1070.55 145.837 1124.08 126.357C1177.61 106.877 1231.13 78.4465 1284.67 81.4474C1338.19 84.2378 1391.72 117.933 1445.25 109.509C1498.78 101.085 1552.3 50.5427 1605.83 53.3331C1659.36 56.334 1712.88 112.142 1766.42 123.566C1819.94 134.78 1873.47 101.085 1900.23 84.2378L1927 67.3902V0H0V151.628Z" fill="#2D6A6E"/>
<defs>
<linearGradient id="paint0_linear_4858_4567" x1="963.319" y1="0" x2="963.319" y2="516.669" gradientUnits="userSpaceOnUse">
<stop stop-color="#4D7C7F"/>
<stop offset="1" stop-color="#2D6A6E"/>
</linearGradient>
</defs>
</svg>
