<svg width="94" height="80" viewBox="0 0 94 80" fill="none" xmlns="http://www.w3.org/2000/svg">
<path d="M72.962 18.6929C81.1707 36.7651 72.1722 60.0597 52.8632 70.7227C33.5543 81.3858 11.2467 75.3794 3.03801 57.3071C-5.17072 39.2349 3.8278 15.9403 23.1368 5.27725C42.4457 -5.38578 64.7533 0.620593 72.962 18.6929Z" fill="url(#paint0_linear_4908_2306)"/>
<path d="M54.0996 48.8523C53.5025 49.7749 52.5492 49.3444 50.9927 48.1472C50.9607 48.1226 50.9285 48.0977 50.8961 48.0725C48.2852 46.0443 44.0162 41.9588 36.977 38.4538C25.5866 32.7823 17.8873 31.7503 19.1265 22.5121C20.0908 15.3236 32.9441 12.9426 43.1777 21.346C53.8137 30.0797 55.6949 46.3876 54.0996 48.8523Z" fill="url(#paint1_linear_4908_2306)"/>
<path d="M51.0937 48.7868C52.2435 51.2255 56.2482 46.9399 65.0707 42.7803C73.8933 38.6208 82.1844 39.1948 80.3988 31.4863C78.9109 25.0634 69.3865 21.2259 60.9357 26.727C52.7971 32.0249 50.3034 44.3517 50.8961 48.0725C50.975 48.1335 50.9827 48.3192 50.975 48.4516C51.0094 48.5799 51.049 48.692 51.0937 48.7868Z" fill="url(#paint2_linear_4908_2306)"/>
<path d="M51.0963 46.3652H54.4092L55.5688 60.6108H50.2681L50.975 48.4516L50.9927 48.1472L51.0963 46.3652Z" fill="url(#paint3_linear_4908_2306)"/>
<path d="M47.6933 34.2096C50.4872 37.2622 53.0642 43.824 53.206 45.5547C53.2232 45.7647 53.1958 46.2895 53.0841 45.867C52.9724 45.4445 50.2236 39.4943 46.52 36.3641C42.3049 32.8017 39.4389 31.8965 38.4339 30.5616C37.4289 29.2267 44.8993 31.157 47.6933 34.2096Z" fill="#004D6A"/>
<path d="M57.8437 37.3845C55.5772 39.6043 53.3388 44.5115 53.1608 45.8329C52.9828 47.1543 55.2823 41.6234 58.6601 39.0744C62.0379 36.5255 64.272 35.97 65.0968 34.9899C65.9215 34.0097 60.1103 35.1647 57.8437 37.3845Z" fill="#004D6A"/>
<path d="M50.9304 48.0216L52.0899 48.8498L52.7525 60.6107H50.2678L50.9304 48.0216Z" fill="#004D6A"/>
<path d="M52 58C30.4353 58 12.6364 67.5939 10 80H94C91.3636 67.5939 73.5647 58 52 58Z" fill="url(#paint4_linear_4908_2306)"/>
<path d="M30.6038 80C32.1887 67.5 37.0024 63.7127 52.0942 58C36.2534 58 15.0917 68.1804 10 80H30.6038Z" fill="url(#paint5_linear_4908_2306)"/>
<path d="M94 80C90.8302 66 71.0189 58 52.0942 58C62.1932 65.627 64.3873 70.3488 58.7359 80H94Z" fill="url(#paint6_linear_4908_2306)"/>
<defs>
<linearGradient id="paint0_linear_4908_2306" x1="38" y1="0" x2="38" y2="76" gradientUnits="userSpaceOnUse">
<stop offset="0.495217" stop-color="#B4EEFD"/>
<stop offset="1" stop-color="white"/>
</linearGradient>
<linearGradient id="paint1_linear_4908_2306" x1="49.8195" y1="16.0075" x2="49.8195" y2="60.6108" gradientUnits="userSpaceOnUse">
<stop offset="0.168269" stop-color="#3DA662"/>
<stop offset="1" stop-color="#076C53"/>
</linearGradient>
<linearGradient id="paint2_linear_4908_2306" x1="49.8195" y1="16.0075" x2="49.8195" y2="60.6108" gradientUnits="userSpaceOnUse">
<stop offset="0.168269" stop-color="#3DA662"/>
<stop offset="1" stop-color="#076C53"/>
</linearGradient>
<linearGradient id="paint3_linear_4908_2306" x1="49.8195" y1="16.0075" x2="49.8195" y2="60.6108" gradientUnits="userSpaceOnUse">
<stop offset="0.168269" stop-color="#3DA662"/>
<stop offset="1" stop-color="#076C53"/>
</linearGradient>
<linearGradient id="paint4_linear_4908_2306" x1="49.2308" y1="58" x2="45.0645" y2="121.336" gradientUnits="userSpaceOnUse">
<stop stop-color="#033F43"/>
<stop offset="1" stop-color="#119097"/>
</linearGradient>
<linearGradient id="paint5_linear_4908_2306" x1="49.792" y1="57.0795" x2="21.388" y2="77.1332" gradientUnits="userSpaceOnUse">
<stop stop-color="#022D2F"/>
<stop offset="1" stop-color="#096267"/>
</linearGradient>
<linearGradient id="paint6_linear_4908_2306" x1="78.6244" y1="61.4871" x2="52.0943" y2="61.4871" gradientUnits="userSpaceOnUse">
<stop stop-color="#228B57"/>
<stop offset="1" stop-color="#0B6B71"/>
</linearGradient>
</defs>
</svg>
